<svg xmlns:mydata="http://www.w3.org/2000/svg" mydata:contrastcolor="fbeae8" mydata:template="Contrast" mydata:presentation="2.5" mydata:layouttype="undefined" mydata:specialfontid="undefined" mydata:id1="112" mydata:id2="706" mydata:companyname="Damas" mydata:companytagline="" version="1.1" xmlns="http://www.w3.org/2000/svg" xmlns:xlink="http://www.w3.org/1999/xlink" viewBox="0 0 550 470" style="background-color:#fbeae8"><g fill="none" fill-rule="none" stroke="none" stroke-width="1" stroke-linecap="butt" stroke-linejoin="miter" stroke-miterlimit="10" stroke-dasharray="" stroke-dashoffset="0" font-family="none" font-weight="none" font-size="none" text-anchor="none" style="mix-blend-mode: normal"><g data-paper-data="{&quot;isGlobalGroup&quot;:true,&quot;bounds&quot;:{&quot;x&quot;:94.69622896924324,&quot;y&quot;:116.88895766155133,&quot;width&quot;:360.6075420615135,&quot;height&quot;:236.22208467689734}}"><g data-paper-data="{&quot;isPrimaryText&quot;:true}" fill="#da291c" fill-rule="nonzero"><path d="M94.69623,274.12186v78.02477h19.76529c5.82348,0 11.26449,-1.02404 16.32302,-3.07213c5.05853,-2.04809 9.33978,-4.82411 12.84374,-8.32807c3.50396,-3.50396 6.26764,-7.64949 8.29106,-12.43659c2.02341,-4.7871 3.03512,-9.84563 3.03512,-15.1756c0,-5.32997 -1.01171,-10.3885 -3.03512,-15.1756c-2.02341,-4.7871 -4.7871,-8.93263 -8.29106,-12.43659c-3.50396,-3.50396 -7.7852,-6.27998 -12.84374,-8.32807c-5.05853,-2.04809 -10.49954,-3.07213 -16.32302,-3.07213zM100.3223,279.22975h13.32491c10.56123,0 19.13606,3.23253 25.72448,9.69758c6.58843,6.46505 9.88264,14.53403 9.88264,24.20693c0,9.6729 -3.29421,17.74187 -9.88264,24.20693c-6.58843,6.46505 -15.16326,9.69758 -25.72448,9.69758h-13.32491z" data-paper-data="{&quot;glyphName&quot;:&quot;D&quot;,&quot;glyphIndex&quot;:0,&quot;firstGlyphOfWord&quot;:true,&quot;word&quot;:1}"></path><path d="M188.04465,274.12186l-32.34993,78.02477h6.14427l9.32744,-22.80041h41.01112l9.40147,22.80041h6.07024l-32.34993,-78.02477zM191.67198,277.97128c0.29611,1.7273 0.61689,2.98577 0.96235,3.77539l17.6185,42.93583h-37.1617c0.04935,0 5.94686,-14.31194 17.69252,-42.93583z" data-paper-data="{&quot;glyphName&quot;:&quot;A&quot;,&quot;glyphIndex&quot;:1,&quot;word&quot;:1}"></path><path d="M235.05198,274.12186v78.02477h5.40399v-67.06873c0.29611,1.67795 0.61689,2.91174 0.96235,3.70136l27.46413,63.36736h7.25467l27.46413,-63.36736l0.96235,-3.70136v67.06873h5.40399v-78.02477h-5.40399h-0.66625l-31.38757,72.6948l-31.31355,-72.6948h-0.74027z" data-paper-data="{&quot;glyphName&quot;:&quot;M&quot;,&quot;glyphIndex&quot;:2,&quot;word&quot;:1}"></path><path d="M349.72026,274.12186l-32.34993,78.02477h6.14427l9.32744,-22.80041h41.01112l9.40147,22.80041h6.07024l-32.34993,-78.02477zM353.34759,277.97128c0.29611,1.7273 0.61689,2.98577 0.96235,3.77539l17.6185,42.93583h-37.1617c0.04935,0 5.94686,-14.31194 17.69252,-42.93583z" data-paper-data="{&quot;glyphName&quot;:&quot;A&quot;,&quot;glyphIndex&quot;:3,&quot;word&quot;:1}"></path><path d="M421.82284,273.15951c-7.45208,0.29611 -13.30024,2.14679 -17.54447,5.55205c-4.24423,3.40526 -6.53908,8.143 -6.88454,14.21324c-0.24676,3.70136 0.46884,6.98324 2.14679,9.84563c1.67795,2.86239 4.19488,5.03386 7.55078,6.5144c3.75072,1.67795 9.54952,3.26954 17.39641,4.77476c7.84689,1.50522 13.37426,2.92408 16.58211,4.25657c3.20785,1.33249 5.53971,3.39292 6.99558,6.18128c1.45587,2.78836 1.91237,5.83582 1.3695,9.14237c-0.34546,2.17147 -1.18444,4.21956 -2.51693,6.14427c-1.33249,1.92471 -2.91174,3.45461 -4.73775,4.58969c-3.40526,2.17147 -8.61184,3.30655 -15.61976,3.40526c-6.02089,0.0987 -11.69631,-0.74027 -17.02628,-2.51693c-5.08321,-1.67795 -9.00665,-3.75072 -11.77034,-6.21829l-2.51693,4.81177c3.50396,2.76369 8.11833,5.00918 13.8431,6.73648c5.72478,1.7273 11.47423,2.56628 17.24836,2.51693c6.76116,-0.0987 12.58464,-1.35717 17.47044,-3.77539c5.77413,-2.91174 9.42614,-7.67416 10.95604,-14.28727c1.08573,-4.6884 0.53053,-9.04367 -1.66561,-13.06582c-2.19614,-4.02215 -5.56438,-6.9709 -10.10473,-8.84626c-3.40526,-1.43119 -8.99432,-2.82538 -16.76718,-4.18254c-7.77287,-1.35717 -13.36193,-2.85005 -16.76718,-4.47865c-2.12212,-1.03638 -3.80007,-2.55394 -5.03386,-4.55268c-1.23379,-1.99874 -1.80133,-4.30592 -1.70263,-6.92155c0.19741,-4.44164 2.04809,-7.92092 5.55205,-10.43785c3.70136,-2.76369 8.38976,-4.21956 14.06519,-4.36761c4.49099,-0.0987 9.09302,0.59222 13.80609,2.07276c4.71307,1.48055 8.27872,3.13382 10.69694,4.95983l2.59096,-4.44164c-2.41822,-1.82601 -6.40336,-3.60266 -11.95541,-5.32997c-5.55205,-1.7273 -10.77097,-2.49225 -15.65677,-2.29485z" data-paper-data="{&quot;glyphName&quot;:&quot;S&quot;,&quot;glyphIndex&quot;:4,&quot;lastGlyphOfWord&quot;:true,&quot;word&quot;:1}"></path></g><g data-paper-data="{&quot;isIcon&quot;:&quot;true&quot;,&quot;iconType&quot;:&quot;icon&quot;,&quot;rawIconId&quot;:&quot;d166bb4c-c30b-4888-b5ed-70997cb9a965&quot;,&quot;isSvgStockIcon&quot;:true,&quot;selectedEffects&quot;:{&quot;container&quot;:&quot;&quot;,&quot;transformation&quot;:&quot;&quot;,&quot;pattern&quot;:&quot;&quot;},&quot;combineTerms&quot;:&quot;pizza,food&quot;,&quot;combineTermsExtended&quot;:{&quot;icon&quot;:[&quot;pizza&quot;,&quot;food&quot;]},&quot;isDetailed&quot;:false,&quot;fillRule&quot;:&quot;evenodd&quot;,&quot;bounds&quot;:{&quot;x&quot;:184.68604105658164,&quot;y&quot;:116.88895766155133,&quot;width&quot;:180.6279178868367,&quot;height&quot;:125.42934809209677},&quot;iconStyle&quot;:&quot;standalone&quot;,&quot;suitableAsStandaloneIcon&quot;:true}" fill-rule="evenodd"><g data-paper-data="{&quot;isPathIcon&quot;:true}"><path d="M236.64194,117.03329c30.265,4.333 58.00101,12.849 80.27601,24.642c18.605,9.85 32.768,21.474 42.098,34.553c4.12,5.772 6.298,12.592 6.298,19.721c0,12.256 -9.152,22.797 -21.288,24.519l-153.61602,21.799c-0.239,0.034 -0.478,0.051 -0.711,0.051c-2.46,0 -4.606,-1.809 -4.963,-4.313c-0.387,-2.744 1.519,-5.283 4.263,-5.672l153.61602,-21.798c7.221,-1.025 12.664,-7.295 12.664,-14.586c0,-5.028 -1.533,-9.83 -4.433,-13.896c-8.415,-11.797 -21.412,-22.4 -38.626,-31.514c-21.374,-11.317 -48.14901,-19.491 -77.42401,-23.638c-0.031,-0.004 -0.059,-0.008 -0.089,-0.012c-0.243,-0.038 -0.483,-0.094 -0.722,-0.17c-1.287,-0.404 -2.389,-1.311 -3.005,-2.525c-0.738,-1.463 -0.758,-3.201 0.02,-4.646c1.11,-2.059 3.468,-3.053 5.642,-2.515z" fill="#da291c"></path><path d="M225.59394,135.24229c0.246,-0.475 0.562,-0.895 0.925,-1.252c0.568,-0.562 1.268,-0.989 2.043,-1.228c0.865,-0.269 1.79,-0.299 2.655,-0.095c26.837,3.856 51.32601,11.382 71.01001,21.802c20.114,10.649 34.729,24.08 42.285,38.851c0.592,1.005 0.835,2.205 0.626,3.401c-0.375,2.138 -2.053,3.81 -4.203,4.117c-0.012,0.004 -0.03,0.006 -0.044,0.006l-150.47902,21.354c-0.239,0.034 -0.474,0.05 -0.707,0.05c-1.603,0 -3.129,-0.769 -4.078,-2.095c-1.09,-1.52 -1.242,-3.518 -0.397,-5.188l40.334,-79.66801l0.012,-0.025c0.002,-0.002 0,-0.004 0.006,-0.008c0.002,-0.002 0.004,-0.008 0.004,-0.01c0.004,-0.002 0.006,-0.006 0.006,-0.01c0,-0.002 0.002,-0.002 0.002,-0.002zM248.46695,155.0153c-4.058,-2.147 -10.635,-2.147 -14.691,0c-4.058,2.147 -4.058,5.629 0,7.777c4.058,2.147 10.635,2.147 14.691,0c4.056,-2.148 4.058,-5.63 0,-7.777zM277.84695,170.5693c-4.058,-2.148 -10.635,-2.148 -14.691,0c-4.058,2.147 -4.058,5.629 0,7.777c4.058,2.147 10.635,2.147 14.691,0c4.056,-2.148 4.058,-5.63 0,-7.777zM237.44895,184.1783c4.056,-2.147 4.056,-5.629 0,-7.777c-4.058,-2.147 -10.635,-2.147 -14.691,0c-4.056,2.148 -4.058,5.63 0,7.777c4.058,2.147 10.635,2.147 14.691,0zM307.22695,186.1233c-4.058,-2.148 -10.635,-2.148 -14.691,0c-4.056,2.147 -4.058,5.629 0,7.777c4.058,2.147 10.635,2.147 14.691,0c4.056,-2.148 4.058,-5.63 0,-7.777zM266.82895,199.7323c4.056,-2.147 4.056,-5.63 0,-7.777c-4.058,-2.147 -10.635,-2.147 -14.691,0c-4.056,2.147 -4.058,5.63 0,7.777c4.058,2.147 10.634,2.147 14.691,0zM211.73994,205.5643c4.058,2.148 10.634,2.148 14.691,0c4.056,-2.147 4.056,-5.629 0,-7.777c-4.059,-2.147 -10.635,-2.147 -14.691,0c-4.056,2.148 -4.058,5.63 0,7.777z" fill="#007b4b"></path></g></g></g></g></svg>